<svg width="14" height="14" viewBox="0 0 14 14" fill="none" xmlns="http://www.w3.org/2000/svg">
<path d="M14 0V5.25H12.25V2.99688L8.77187 6.45312C9.04896 6.86146 9.26042 7.29531 9.40625 7.75469C9.55208 8.21406 9.625 8.69167 9.625 9.1875C9.625 10.5292 9.15833 11.6667 8.225 12.6C7.29167 13.5333 6.15417 14 4.8125 14C3.47083 14 2.33333 13.5333 1.4 12.6C0.466667 11.6667 0 10.5292 0 9.1875C0 7.84583 0.466667 6.70833 1.4 5.775C2.33333 4.84167 3.47083 4.375 4.8125 4.375C5.29375 4.375 5.76771 4.44427 6.23438 4.58281C6.70104 4.72135 7.13125 4.93646 7.525 5.22813L11.0031 1.75H8.75V0H14ZM4.8125 6.125C3.96667 6.125 3.24479 6.42396 2.64687 7.02187C2.04896 7.61979 1.75 8.34167 1.75 9.1875C1.75 10.0333 2.04896 10.7552 2.64687 11.3531C3.24479 11.951 3.96667 12.25 4.8125 12.25C5.65833 12.25 6.38021 11.951 6.97813 11.3531C7.57604 10.7552 7.875 10.0333 7.875 9.1875C7.875 8.34167 7.57604 7.61979 6.97813 7.02187C6.38021 6.42396 5.65833 6.125 4.8125 6.125Z" fill="#303030"/>
</svg>
