<svg width="16" height="16" viewBox="0 0 16 16" fill="none" xmlns="http://www.w3.org/2000/svg">
<path d="M15.0667 16C13.2148 16 11.3852 15.5963 9.57778 14.7889C7.77037 13.9815 6.12593 12.837 4.64444 11.3556C3.16296 9.87407 2.01852 8.22963 1.21111 6.42222C0.403704 4.61481 0 2.78519 0 0.933333C0 0.666667 0.0888889 0.444444 0.266667 0.266667C0.444444 0.0888889 0.666667 0 0.933333 0H4.53333C4.74074 0 4.92593 0.0703704 5.08889 0.211111C5.25185 0.351852 5.34815 0.518519 5.37778 0.711111L5.95556 3.82222C5.98519 4.05926 5.97778 4.25926 5.93333 4.42222C5.88889 4.58519 5.80741 4.72593 5.68889 4.84444L3.53333 7.02222C3.82963 7.57037 4.18148 8.1 4.58889 8.61111C4.9963 9.12222 5.44444 9.61481 5.93333 10.0889C6.39259 10.5481 6.87407 10.9741 7.37778 11.3667C7.88148 11.7593 8.41481 12.1185 8.97778 12.4444L11.0667 10.3556C11.2 10.2222 11.3741 10.1222 11.5889 10.0556C11.8037 9.98889 12.0148 9.97037 12.2222 10L15.2889 10.6222C15.4963 10.6815 15.6667 10.7889 15.8 10.9444C15.9333 11.1 16 11.2741 16 11.4667V15.0667C16 15.3333 15.9111 15.5556 15.7333 15.7333C15.5556 15.9111 15.3333 16 15.0667 16ZM2.68889 5.33333L4.15556 3.86667L3.77778 1.77778H1.8C1.87407 2.38519 1.97778 2.98519 2.11111 3.57778C2.24444 4.17037 2.43704 4.75556 2.68889 5.33333ZM10.6444 13.2889C11.2222 13.5407 11.8111 13.7407 12.4111 13.8889C13.0111 14.037 13.6148 14.1333 14.2222 14.1778V12.2222L12.1333 11.8L10.6444 13.2889Z" fill="#303030"/>
</svg>
